<svg xmlns="http://www.w3.org/2000/svg" width="16.736" height="16.736" viewBox="0 0 16.736 16.736">
  <defs>
    <style>
      .cls-1 {
        stroke-width: 0.4px;
      }
    </style>
  </defs>
  <g id="Calendar" transform="translate(0.2 0.2)">
    <path id="Path_913" data-name="Path 913" class="cls-1" d="M16.975,3.634H15.613V3.089a1.089,1.089,0,1,0-2.178,0v.545H11.257V3.089a1.089,1.089,0,1,0-2.178,0v.545H6.9V3.089a1.089,1.089,0,1,0-2.178,0v.545H3.361A1.361,1.361,0,0,0,2,4.995V15.886a1.361,1.361,0,0,0,1.361,1.361h7.623a.272.272,0,0,0,0-.545H3.361a.819.819,0,0,1-.817-.817V7.445H17.791v4.629a.272.272,0,1,0,.545,0V4.995a1.361,1.361,0,0,0-1.361-1.361ZM13.98,3.089a.545.545,0,1,1,1.089,0V4.723a.545.545,0,1,1-1.089,0Zm-4.356,0a.545.545,0,1,1,1.089,0V4.723a.545.545,0,1,1-1.089,0Zm-4.356,0a.545.545,0,0,1,1.089,0V4.723a.545.545,0,1,1-1.089,0ZM17.791,6.9H2.545V4.995a.819.819,0,0,1,.817-.817H4.723v.545a1.089,1.089,0,1,0,2.178,0V4.178H9.079v.545a1.089,1.089,0,1,0,2.178,0V4.178h2.178v.545a1.089,1.089,0,1,0,2.178,0V4.178h1.361a.819.819,0,0,1,.817.817Z" transform="translate(-2 -2)"/>
    <path id="Path_914" data-name="Path 914" class="cls-1" d="M24.178,27.545A.545.545,0,0,0,23.634,27H22.545a.545.545,0,0,0-.545.545v.817a.545.545,0,0,0,.545.545h1.089a.545.545,0,0,0,.545-.545Zm-1.634.817v-.817h1.089v.817Z" transform="translate(-16.555 -20.193)"/>
    <path id="Path_915" data-name="Path 915" class="cls-1" d="M12.178,27.545A.545.545,0,0,0,11.634,27H10.545a.545.545,0,0,0-.545.545v.817a.545.545,0,0,0,.545.545h1.089a.545.545,0,0,0,.545-.545Zm-1.634.817v-.817h1.089v.817Z" transform="translate(-7.822 -20.193)"/>
    <path id="Path_916" data-name="Path 916" class="cls-1" d="M47.634,28.906a.545.545,0,0,0,.545-.545v-.817A.545.545,0,0,0,47.634,27H46.545a.545.545,0,0,0-.545.545v.817a.545.545,0,0,0,.545.545Zm-1.089-1.361h1.089v.817H46.545Z" transform="translate(-34.02 -20.193)"/>
    <path id="Path_917" data-name="Path 917" class="cls-1" d="M24.178,36.545A.545.545,0,0,0,23.634,36H22.545a.545.545,0,0,0-.545.545v.817a.545.545,0,0,0,.545.545h1.089a.545.545,0,0,0,.545-.545Zm-1.634.817v-.817h1.089v.817Z" transform="translate(-16.555 -26.743)"/>
    <path id="Path_918" data-name="Path 918" class="cls-1" d="M12.178,36.545A.545.545,0,0,0,11.634,36H10.545a.545.545,0,0,0-.545.545v.817a.545.545,0,0,0,.545.545h1.089a.545.545,0,0,0,.545-.545Zm-1.634.817v-.817h1.089v.817Z" transform="translate(-7.822 -26.743)"/>
    <path id="Path_919" data-name="Path 919" class="cls-1" d="M23.634,45H22.545a.545.545,0,0,0-.545.545v.817a.545.545,0,0,0,.545.545h1.089a.545.545,0,0,0,.545-.545v-.817A.545.545,0,0,0,23.634,45Zm-1.089,1.361v-.817h1.089v.817Z" transform="translate(-16.555 -33.293)"/>
    <path id="Path_920" data-name="Path 920" class="cls-1" d="M34.545,28.906h1.089a.545.545,0,0,0,.545-.545v-.817A.545.545,0,0,0,35.634,27H34.545a.545.545,0,0,0-.545.545v.817A.545.545,0,0,0,34.545,28.906Zm0-1.361h1.089v.817H34.545Z" transform="translate(-25.288 -20.193)"/>
    <path id="Path_921" data-name="Path 921" class="cls-1" d="M34,37.361a.545.545,0,0,0,.545.545.272.272,0,1,0,0-.545v-.817h1.089a.272.272,0,0,0,0-.545H34.545a.545.545,0,0,0-.545.545Z" transform="translate(-25.288 -26.743)"/>
    <path id="Path_922" data-name="Path 922" class="cls-1" d="M11.634,45H10.545a.545.545,0,0,0-.545.545v.817a.545.545,0,0,0,.545.545h1.089a.545.545,0,0,0,.545-.545v-.817A.545.545,0,0,0,11.634,45Zm-1.089,1.361v-.817h1.089v.817Z" transform="translate(-7.822 -33.293)"/>
    <path id="Path_923" data-name="Path 923" class="cls-1" d="M39.539,36a3.539,3.539,0,1,0,3.539,3.539A3.539,3.539,0,0,0,39.539,36Zm0,6.534a2.995,2.995,0,1,1,2.995-2.995A2.995,2.995,0,0,1,39.539,42.534Z" transform="translate(-26.743 -26.743)"/>
    <path id="Path_924" data-name="Path 924" class="cls-1" d="M45.3,44.595l-2.118,2.118-.962-.963a.272.272,0,1,0-.385.385l1.155,1.155a.272.272,0,0,0,.385,0l2.31-2.31a.272.272,0,1,0-.385-.385Z" transform="translate(-30.933 -32.94)"/>
  </g>
</svg>
