<svg xmlns="http://www.w3.org/2000/svg" width="31.306" height="31.306" viewBox="0 0 31.306 31.306">
    <defs>
        <style>
            .prefix__cls-1{fill:#fff;stroke:#fff;stroke-width:.4px}
        </style>
    </defs>
    <g id="prefix__Calendar" transform="translate(.2 .2)">
        <path id="prefix__Path_913" d="M30.331 5.091h-2.576V4.06a2.06 2.06 0 1 0-4.121 0v1.03h-4.12V4.06a2.06 2.06 0 1 0-4.121 0v1.03h-4.121V4.06a2.06 2.06 0 1 0-4.121 0v1.03H4.576A2.576 2.576 0 0 0 2 7.666v20.6a2.576 2.576 0 0 0 2.576 2.576H19a.515.515 0 0 0 0-1.03H4.576A1.55 1.55 0 0 1 3.03 28.27V12.3h28.846v8.757a.515.515 0 0 0 1.03 0V7.666A2.576 2.576 0 0 0 30.33 5.09zM24.665 4.06a1.03 1.03 0 1 1 2.06 0v3.091a1.03 1.03 0 1 1-2.06 0zm-8.242 0a1.03 1.03 0 1 1 2.06 0v3.091a1.03 1.03 0 1 1-2.06 0zm-8.242 0a1.03 1.03 0 0 1 2.06 0v3.091a1.03 1.03 0 1 1-2.06 0zm23.695 7.211H3.03V7.666a1.55 1.55 0 0 1 1.546-1.545h2.575v1.03a2.06 2.06 0 1 0 4.121 0v-1.03h4.121v1.03a2.06 2.06 0 1 0 4.121 0v-1.03h4.121v1.03a2.06 2.06 0 1 0 4.121 0v-1.03h2.576a1.55 1.55 0 0 1 1.545 1.545z" class="prefix__cls-1" data-name="Path 913" transform="translate(-2 -2)"/>
        <path id="prefix__Path_914" d="M26.121 28.03a1.03 1.03 0 0 0-1.03-1.03H23.03A1.03 1.03 0 0 0 22 28.03v1.545a1.03 1.03 0 0 0 1.03 1.03h2.06a1.03 1.03 0 0 0 1.03-1.03zm-3.091 1.546V28.03h2.06v1.545z" class="prefix__cls-1" data-name="Path 914" transform="translate(-11.698 -14.122)"/>
        <path id="prefix__Path_915" d="M14.121 28.03a1.03 1.03 0 0 0-1.03-1.03H11.03A1.03 1.03 0 0 0 10 28.03v1.545a1.03 1.03 0 0 0 1.03 1.03h2.06a1.03 1.03 0 0 0 1.03-1.03zm-3.091 1.546V28.03h2.06v1.545z" class="prefix__cls-1" data-name="Path 915" transform="translate(-5.879 -14.122)"/>
        <path id="prefix__Path_916" d="M49.091 30.606a1.03 1.03 0 0 0 1.03-1.03V28.03a1.03 1.03 0 0 0-1.03-1.03H47.03A1.03 1.03 0 0 0 46 28.03v1.545a1.03 1.03 0 0 0 1.03 1.03zM47.03 28.03h2.06v1.545h-2.06z" class="prefix__cls-1" data-name="Path 916" transform="translate(-23.335 -14.122)"/>
        <path id="prefix__Path_917" d="M26.121 37.03a1.03 1.03 0 0 0-1.03-1.03H23.03A1.03 1.03 0 0 0 22 37.03v1.545a1.03 1.03 0 0 0 1.03 1.03h2.06a1.03 1.03 0 0 0 1.03-1.03zm-3.091 1.546V37.03h2.06v1.545z" class="prefix__cls-1" data-name="Path 917" transform="translate(-11.698 -18.486)"/>
        <path id="prefix__Path_918" d="M14.121 37.03a1.03 1.03 0 0 0-1.03-1.03H11.03A1.03 1.03 0 0 0 10 37.03v1.545a1.03 1.03 0 0 0 1.03 1.03h2.06a1.03 1.03 0 0 0 1.03-1.03zm-3.091 1.546V37.03h2.06v1.545z" class="prefix__cls-1" data-name="Path 918" transform="translate(-5.879 -18.486)"/>
        <path id="prefix__Path_919" d="M25.091 45H23.03A1.03 1.03 0 0 0 22 46.03v1.545a1.03 1.03 0 0 0 1.03 1.03h2.06a1.03 1.03 0 0 0 1.03-1.03V46.03A1.03 1.03 0 0 0 25.091 45zm-2.06 2.576V46.03h2.06v1.545z" class="prefix__cls-1" data-name="Path 919" transform="translate(-11.698 -22.85)"/>
        <path id="prefix__Path_920" d="M35.03 30.606h2.06a1.03 1.03 0 0 0 1.03-1.03V28.03A1.03 1.03 0 0 0 37.091 27H35.03A1.03 1.03 0 0 0 34 28.03v1.545a1.03 1.03 0 0 0 1.03 1.031zm0-2.576h2.06v1.545h-2.06z" class="prefix__cls-1" data-name="Path 920" transform="translate(-17.517 -14.122)"/>
        <path id="prefix__Path_921" d="M34 38.576a1.03 1.03 0 0 0 1.03 1.03.515.515 0 1 0 0-1.03V37.03h2.06a.515.515 0 0 0 0-1.03h-2.06A1.03 1.03 0 0 0 34 37.03z" class="prefix__cls-1" data-name="Path 921" transform="translate(-17.517 -18.486)"/>
        <path id="prefix__Path_922" d="M13.091 45H11.03A1.03 1.03 0 0 0 10 46.03v1.545a1.03 1.03 0 0 0 1.03 1.03h2.06a1.03 1.03 0 0 0 1.03-1.03V46.03A1.03 1.03 0 0 0 13.091 45zm-2.06 2.576V46.03h2.06v1.545z" class="prefix__cls-1" data-name="Path 922" transform="translate(-5.879 -22.85)"/>
        <path id="prefix__Path_923" d="M42.7 36a6.7 6.7 0 1 0 6.7 6.7 6.7 6.7 0 0 0-6.7-6.7zm0 12.363a5.666 5.666 0 1 1 5.663-5.663 5.666 5.666 0 0 1-5.663 5.663z" class="prefix__cls-1" data-name="Path 923" transform="translate(-18.486 -18.486)"/>
        <path id="prefix__Path_924" d="M48.465 44.666l-4.006 4.006-1.821-1.821a.515.515 0 1 0-.728.728l2.185 2.186a.515.515 0 0 0 .728 0l4.371-4.371a.515.515 0 1 0-.728-.728z" class="prefix__cls-1" data-name="Path 924" transform="translate(-21.278 -22.615)"/>
    </g>
</svg>
