<svg xmlns="http://www.w3.org/2000/svg" width="19.855" height="11.376" viewBox="0 0 19.855 11.376">
<defs>
    <style>
      .cls-1 {
        stroke-width: 0.5px;
      }
    </style>
  </defs>
  <g id="eye" transform="translate(0.249 -110.696)">
    <g id="Group_2100" data-name="Group 2100" transform="translate(-0.002 110.897)">
      <g id="Group_2099" data-name="Group 2099" transform="translate(0 0)">
        <path id="Path_941" data-name="Path 941" class="cls-1" d="M19.045,115.472a11.983,11.983,0,0,0-4.07-3.332A11.742,11.742,0,0,0,9.829,110.9c-.05,0-.25,0-.3,0a11.743,11.743,0,0,0-5.147,1.242,11.983,11.983,0,0,0-4.07,3.332,1.48,1.48,0,0,0,0,1.823,11.983,11.983,0,0,0,4.07,3.332,11.743,11.743,0,0,0,5.147,1.242c.05,0,.25,0,.3,0a11.743,11.743,0,0,0,5.147-1.242,11.983,11.983,0,0,0,4.07-3.332A1.48,1.48,0,0,0,19.045,115.472ZM4.734,119.923a11.192,11.192,0,0,1-3.8-3.112.694.694,0,0,1,0-.854A11.109,11.109,0,0,1,6.014,112.3a5.48,5.48,0,0,0,0,8.163A11.109,11.109,0,0,1,4.734,119.923Zm4.944,1.161a4.7,4.7,0,1,1,4.7-4.7A4.706,4.706,0,0,1,9.679,121.084Zm8.745-4.273a11.091,11.091,0,0,1-5.079,3.653,5.48,5.48,0,0,0,0-8.162,11.115,11.115,0,0,1,5.081,3.654A.694.694,0,0,1,18.424,116.811Z" transform="translate(0.002 -110.897)"/>
      </g>
    </g>
    <g id="Group_2102" data-name="Group 2102" transform="translate(7.667 114.372)">
      <g id="Group_2101" data-name="Group 2101">
        <path id="Path_942" data-name="Path 942" class="cls-1" d="M204.816,202.8a2.012,2.012,0,1,0,2.012,2.012A2.014,2.014,0,0,0,204.816,202.8Zm0,3.235a1.224,1.224,0,1,1,1.224-1.224A1.225,1.225,0,0,1,204.816,206.039Z" transform="translate(-202.805 -202.804)"/>
      </g>
    </g>
  </g>
</svg>
