<svg xmlns="http://www.w3.org/2000/svg" width="12.601" height="12.122" viewBox="0 0 12.601 12.122">
  <defs>
    <style>
      .cls-1 {
        fill: #bbb;
        stroke: #bbb;
        stroke-width: 0.9px;
      }
    </style>
  </defs>
  <path id="icons8_parking_and_2nd_floor" class="cls-1" d="M7.945,3a.267.267,0,0,0-.048.008L2.8,4.283a.255.255,0,1,0,.124.494l.448-.112v1.65h.51V4.538l4.081-1.02,4.081,1.02V8.977h.568L12.55,4.665,13,4.777a.255.255,0,1,0,.124-.494l-5.1-1.275A.242.242,0,0,0,7.945,3ZM3.368,6.235v2.63h.51V6.235Zm8.672.59v.51h.51v-.51ZM3.368,7.845v.51h.51v-.51Zm8.672,0v.51h.51v-.51ZM2.125,8.865v.51H3.368v4.591a.256.256,0,0,0,.255.255H12.3a.256.256,0,0,0,.255-.255V9.376h1.275v-.51Zm1.753.51H12.04v4.336H3.878Z" transform="translate(-1.675 -2.549)"/>
</svg>
