<svg xmlns="http://www.w3.org/2000/svg" width="89.224" height="89.22" viewBox="0 0 89.224 89.22">
    <defs>
        <style>
            .prefix__cls-1{fill:#bbb}
        </style>
    </defs>
    <g id="prefix__location" transform="translate(-4.556 -4.559)">
        <path id="prefix__Path_911" d="M71.4 33.334a11.09 11.09 0 1 0-11.09 11.091A11.09 11.09 0 0 0 71.4 33.334zm-19.553 0a8.463 8.463 0 1 1 8.466 8.466 8.463 8.463 0 0 1-8.464-8.465z" class="prefix__cls-1" data-name="Path 911" transform="translate(-11.145 -4.413)"/>
        <path id="prefix__Path_912" d="M93.693 92L82.986 63.93a1.314 1.314 0 0 0-1.227-.845H61.5l.371-.6c7.8-12.908 11.72-24.2 11.664-33.557a24.364 24.364 0 1 0-48.728 0c-.056 9.361 3.867 20.654 11.664 33.561l.371.6H16.575a1.314 1.314 0 0 0-1.227.845L4.643 92a1.312 1.312 0 0 0 1.227 1.78h86.6A1.312 1.312 0 0 0 93.693 92zM27.431 28.921a21.737 21.737 0 0 1 43.474 0c.113 18.659-17.329 41.668-21.737 47.186C44.76 70.6 27.317 47.593 27.431 28.921zm20.736 50.117a1.313 1.313 0 0 0 2 0A139.378 139.378 0 0 0 59.85 65.71h21l1.681 4.409L41.49 84.717 26.86 65.708h11.625a139.381 139.381 0 0 0 9.683 13.33zm-6.724 8.48h.008l24.486-8.706 9.5 12.34h-44.2zm-23.962-21.81h6.064l15.341 19.934-15.492 5.51H7.776zm61.272 25.445l-10.214-13.27 14.935-5.311 7.087 18.581z" class="prefix__cls-1" data-name="Path 912"/>
    </g>
</svg>
