<svg xmlns="http://www.w3.org/2000/svg" width="13.018" height="15.398" viewBox="0 0 13.018 15.398">
    <path id="prefix__location-point" fill="#8b8b8b" d="M14.633 3.9a6.513 6.513 0 1 0-9.211 9.211l4.045 4.053a.768.768 0 0 0 1.09 0l4.076-4.091a6.486 6.486 0 0 0 0-9.172zm-1.1 8.075L10.028 15.5 6.52 11.977a4.958 4.958 0 1 1 7.015 0zM7.725 6.151a3.311 3.311 0 1 0 5.649 2.379 3.254 3.254 0 0 0-.967-2.341 3.3 3.3 0 0 0-4.682-.038zm3.6 3.592a.739.739 0 1 0-.038 0z" transform="translate(-3.515 -1.995)"/>
</svg>
