<svg xmlns="http://www.w3.org/2000/svg" width="16.748" height="19.385" viewBox="0 0 16.748 19.385">
    <path id="prefix__Bag_of_money" fill="currentColor" fill-rule="evenodd" d="M267.362 2401.809a.773.773 0 0 1-.549-1.322.793.793 0 0 1 1.1 0 .764.764 0 0 1 .227.546.661.661 0 1 0 1.321 0 2.078 2.078 0 0 0-1.637-2.039l-.022-.41a.661.661 0 0 0-1.321 0v.555a2.055 2.055 0 0 0-.6.41 2.1 2.1 0 0 0 1.485 3.581.936.936 0 0 1 .661 1.6.962.962 0 0 1-.445.242h-.417a.922.922 0 0 1-.732-1 .661.661 0 0 0-.592-.722.653.653 0 0 0-.724.59 2.241 2.241 0 0 0 1.373 2.3.658.658 0 0 0 1.28.141 2.256 2.256 0 0 0-.4-4.475zm8.369 4.048c-.176-1.978-1.111-8.135-4.936-10.522 0-.009.008-.018.011-.027l1.321-3.524a1.322 1.322 0 0 0-1.239-1.784h-7.056a1.322 1.322 0 0 0-1.239 1.784l1.321 3.524c0 .009.008.018.011.027-3.826 2.387-4.761 8.545-4.936 10.522a3.887 3.887 0 0 0 .881 2.643 2.971 2.971 0 0 0 2.273.881h10.43a2.972 2.972 0 0 0 2.273-.881 3.888 3.888 0 0 0 .885-2.643zm-11.9-14.535h7.057l-1.321 3.524h-4.413zm8.743 16.738h-10.43a1.708 1.708 0 0 1-1.832-1.762c.326-3.669 1.734-8.7 4.843-10.131h4.41c3.108 1.427 4.517 6.462 4.843 10.131a1.709 1.709 0 0 1-1.831 1.762z" data-name="Bag of money" transform="translate(-258.987 -2390)"/>
</svg>
