<svg xmlns="http://www.w3.org/2000/svg" id="prefix__panorama" width="94.867" height="92.088" viewBox="0 0 94.867 92.088">
    <defs>
        <style>
            .prefix__cls-1{fill:#bbb}
        </style>
    </defs>
    <path id="prefix__Path_633" d="M152.836 345.844h-6.965a1.39 1.39 0 0 0 0 2.779h6.965a2.984 2.984 0 0 0 2.981-2.98v-10.951a2.984 2.984 0 0 0-2.981-2.98h-6.965a1.39 1.39 0 1 0 0 2.779h6.965a.212.212 0 0 1 .2.2v4.089h-7.166a1.39 1.39 0 1 0 0 2.779h7.166v4.084a.212.212 0 0 1-.2.201z" class="prefix__cls-1" data-name="Path 633" transform="translate(-117.711 -271.64)"/>
    <path id="prefix__Path_634" d="M228.393 334.492h6.959a1.39 1.39 0 0 0 0-2.779h-6.959a2.984 2.984 0 0 0-2.981 2.98v10.952a2.984 2.984 0 0 0 2.981 2.98h5.373a2.981 2.981 0 0 0 2.976-2.98v-3.889a2.979 2.979 0 0 0-2.976-2.975h-5.575v-4.089a.206.206 0 0 1 .202-.2zm5.373 7.069a.2.2 0 0 1 .2.2v3.889a.207.207 0 0 1-.2.2h-5.373a.206.206 0 0 1-.2-.2v-4.084z" class="prefix__cls-1" data-name="Path 634" transform="translate(-183.646 -271.641)"/>
    <path id="prefix__Path_635" d="M314.689 348.624a2.984 2.984 0 0 0 2.981-2.98v-10.952a2.984 2.984 0 0 0-2.981-2.98h-5.373a2.981 2.981 0 0 0-2.976 2.98v10.952a2.981 2.981 0 0 0 2.976 2.98zm-5.57-2.98v-10.952a.207.207 0 0 1 .2-.2h5.373a.207.207 0 0 1 .2.2v10.952a.207.207 0 0 1-.2.2h-5.373a.207.207 0 0 1-.2-.2z" class="prefix__cls-1" data-name="Path 635" transform="translate(-249.579 -271.64)"/>
    <path id="prefix__Path_636" d="M307.666 392.746a1.39 1.39 0 1 0-1.092 2.556c2.668 1.14 4.261 2.465 4.261 3.545 0 2.142-6.543 5.813-20.587 6.891a1.39 1.39 0 0 0 .105 2.775h.108a61.773 61.773 0 0 0 16.033-3.094c4.724-1.762 7.12-3.971 7.12-6.568.001-2.367-2.001-4.419-5.948-6.105z" class="prefix__cls-1" data-name="Path 636" transform="translate(-235.424 -321.274)"/>
    <path id="prefix__Path_637" d="M121.916 408.169a1.4 1.4 0 0 0-.318-1.868l-5.987-4.566a1.39 1.39 0 0 0-1.685 2.21l2.6 1.982a70.163 70.163 0 0 1-16.145-2.362c-5.609-1.635-7.6-3.564-7.6-4.719 0-1.082 1.593-2.407 4.26-3.544a1.39 1.39 0 0 0-1.09-2.557C92 394.43 90 396.482 90 398.847c0 3 3.32 5.556 9.6 7.387a73.515 73.515 0 0 0 17.142 2.484l-2.819 2.149a1.39 1.39 0 1 0 1.685 2.21l5.987-4.565a1.394 1.394 0 0 0 .319-.342z" class="prefix__cls-1" data-name="Path 637" transform="translate(-73.324 -321.274)"/>
    <path id="prefix__Path_638" d="M378.3 321.419v-.005a1.288 1.288 0 1 0 0 .005z" class="prefix__cls-1" data-name="Path 638" transform="translate(-306.275 -261.321)"/>
    <path id="prefix__Path_639" d="M86.586 7.5H51.58a1.39 1.39 0 1 0 0 2.779h35.006a5.5 5.5 0 1 1 0 10.991h-7.017a3.741 3.741 0 0 0-3.737 3.736v20.263l-5.769-8.762a7.113 7.113 0 0 0-5.834-3.524 7.123 7.123 0 0 0-5.84 3.523L56.354 39.6 46.223 24.21a8.142 8.142 0 0 0-6.664-4.034A8.133 8.133 0 0 0 32.9 24.21L19.03 45.27V25.006a3.741 3.741 0 0 0-3.737-3.736H8.28a5.5 5.5 0 1 1 0-10.991h46.882a1.39 1.39 0 1 0 0-2.779H8.28A8.287 8.287 0 0 0 0 15.775v42.76a8.287 8.287 0 0 0 8.28 8.275h7.012a3.741 3.741 0 0 0 3.737-3.735v-2.259h34.9a1.39 1.39 0 0 0 0-2.779H19.03v-7.714l16.19-24.585a5.364 5.364 0 0 1 4.337-2.782 5.372 5.372 0 0 1 4.343 2.783l21.266 32.3H50.508a1.39 1.39 0 1 0 0 2.779h25.324v2.258a3.741 3.741 0 0 0 3.737 3.735h7.017a8.287 8.287 0 0 0 8.28-8.275V15.775a8.287 8.287 0 0 0-8.28-8.275zM16.25 49.921v13.153a.958.958 0 0 1-.958.956H8.28a5.5 5.5 0 0 1-5.5-5.5V21.954a8.25 8.25 0 0 0 5.5 2.1h7.012a.958.958 0 0 1 .958.956zm59.582 8.116H68.5L58.018 42.124l2.691-4.09a4.365 4.365 0 0 1 3.518-2.271 4.358 4.358 0 0 1 3.513 2.271l8.091 12.289v7.714zm16.256.5a5.5 5.5 0 0 1-5.5 5.5h-7.019a.97.97 0 0 1-.958-.956V25.006a.97.97 0 0 1 .958-.956h7.017a8.249 8.249 0 0 0 5.5-2.1z" class="prefix__cls-1" data-name="Path 639" transform="translate(0 -7.5)"/>
    <path id="prefix__Path_640" d="M302.473 52.075a6.768 6.768 0 1 0-6.768 6.763 6.774 6.774 0 0 0 6.768-6.763zm-10.756 0a3.988 3.988 0 1 1 3.988 3.984 3.991 3.991 0 0 1-3.989-3.984z" class="prefix__cls-1" data-name="Path 640" transform="translate(-235.401 -38.305)"/>
</svg>
