<svg xmlns="http://www.w3.org/2000/svg" width="23.097" height="22.19" viewBox="0 0 23.097 22.19">
    <path id="prefix__icons8_parking_and_2nd_floor" fill="currentColor" stroke="currentColor" stroke-width="0.9px" d="M13.167 3a.506.506 0 0 0-.091.015L3.4 5.434a.483.483 0 1 0 .234.937l.851-.212V9.29h.968V5.918l7.742-1.935 7.742 1.935v8.422h1.077L21.9 6.16l.851.212a.483.483 0 1 0 .234-.937l-9.675-2.42A.459.459 0 0 0 13.167 3zM4.484 9.138v4.99h.968v-4.99zm16.451 1.119v.968h.965v-.968zM4.484 12.193v.968h.968v-.968zm16.451 0v.968h.965v-.968zm-18.81 1.935v.972h2.359v8.709a.485.485 0 0 0 .484.484h16.451a.485.485 0 0 0 .484-.484V15.1h2.419v-.968zm3.327.968h15.483v8.226H5.452z" transform="translate(-1.675 -2.549)"/>
</svg>
