<svg xmlns="http://www.w3.org/2000/svg" width="93.224" height="93.224" viewBox="0 0 93.224 93.224">
    <path id="prefix__mbri-photos" fill="#fff" d="M19.422 11.653a7.769 7.769 0 1 0 7.769 7.769 7.791 7.791 0 0 0-7.769-7.769zm0 3.884a3.884 3.884 0 1 1-3.884 3.884 3.856 3.856 0 0 1 3.884-3.884zM52.438 27.19a2.189 2.189 0 0 0-1.262.458L33.017 42.1 26.6 35.549a1.936 1.936 0 0 0-2.536-.179L8.545 47.008c-2.059 1.542.412 4.545 2.331 3.107l14.372-10.693 6.37 6.627a1.939 1.939 0 0 0 2.583.144l18.237-14.43 10.216 10.41A1.941 1.941 0 1 0 65.4 39.43L53.759 27.8a1.786 1.786 0 0 0-1.321-.6zM9.711 58.265h54.38a1.942 1.942 0 1 1 0 3.884H9.711a1.942 1.942 0 1 1 0-3.884zM5.826 0A5.859 5.859 0 0 0 0 5.826v62.15A5.859 5.859 0 0 0 5.826 73.8h62.15a5.859 5.859 0 0 0 5.824-5.824V5.826A5.859 5.859 0 0 0 67.976 0zm0 3.884h62.15a1.9 1.9 0 0 1 1.942 1.942v62.15a1.9 1.9 0 0 1-1.942 1.942H5.826a1.9 1.9 0 0 1-1.942-1.942V5.826a1.9 1.9 0 0 1 1.942-1.942zm73.8 15.537a1.942 1.942 0 0 0 0 3.884H87.4a1.9 1.9 0 0 1 1.942 1.942V87.4a1.9 1.9 0 0 1-1.942 1.939H25.248a1.9 1.9 0 0 1-1.942-1.939v-7.771a1.841 1.841 0 0 0-1.942-1.942 1.834 1.834 0 0 0-1.942 1.942V87.4a5.859 5.859 0 0 0 5.826 5.826H87.4a5.859 5.859 0 0 0 5.824-5.826V25.248a5.859 5.859 0 0 0-5.824-5.826z"/>
</svg>
