<svg xmlns="http://www.w3.org/2000/svg" width="11.208" height="19.433" viewBox="0 0 11.208 19.433">
  <defs>
    <style>
      .cls-1 {
        stroke-width: 0.4px;
      }
    </style>
  </defs>
  <g id="rent" transform="translate(-103.797 0.211)">
    <g id="Group_2104" data-name="Group 2104" transform="translate(107.805 9.84)">
      <g id="Group_2103" data-name="Group 2103" transform="translate(0)">
        <path id="Path_943" data-name="Path 943" class="cls-1" d="M202.948,249.56h-1.77l.727-.727a.317.317,0,0,0-.447-.448l-1.268,1.268a.317.317,0,0,0,.222.541h2.536a.317.317,0,1,0,0-.634Z" transform="translate(-200.096 -248.303)"/>
      </g>
    </g>
    <g id="Group_2106" data-name="Group 2106" transform="translate(103.997 8.244)">
      <g id="Group_2105" data-name="Group 2105" transform="translate(0)">
        <path id="Path_944" data-name="Path 944" class="cls-1" d="M114.687,213.192l-.951-.951-4.121-4.121a.317.317,0,0,0-.448,0l-4.121,4.121h0l-.951.951a.317.317,0,0,0,.441.456l.008-.008.408-.41v4.446a1.2,1.2,0,0,0,.276.779.958.958,0,0,0,.729.349h6.87a.957.957,0,0,0,.727-.349,1.2,1.2,0,0,0,.275-.779v-4.446l.412.41a.317.317,0,0,0,.448-.448Zm-1.495,4.485a.576.576,0,0,1-.127.369.322.322,0,0,1-.243.127h-6.868a.322.322,0,0,1-.243-.127.576.576,0,0,1-.127-.369V212.6l3.8-3.8,3.8,3.8Z" transform="translate(-103.997 -208.027)"/>
      </g>
    </g>
    <g id="Group_2108" data-name="Group 2108" transform="translate(112.241 8.561)">
      <g id="Group_2107" data-name="Group 2107" transform="translate(0)">
        <path id="Path_945" data-name="Path 945" class="cls-1" d="M313.165,216.025h-.354a.793.793,0,0,0-.775.807v.778a.317.317,0,1,0,.634,0v-.778a.161.161,0,0,1,.141-.173h.354a.161.161,0,0,1,.14.173v2.046a.316.316,0,1,0,.633,0v-2.046A.793.793,0,0,0,313.165,216.025Z" transform="translate(-312.036 -216.025)"/>
      </g>
    </g>
    <g id="Group_2110" data-name="Group 2110" transform="translate(107.563 12.365)">
      <g id="Group_2109" data-name="Group 2109" transform="translate(0)">
        <path id="Path_946" data-name="Path 946" class="cls-1" d="M196.365,314.561h-.24v-1.254a.211.211,0,0,1,.037,0l1.154.289.154-.615-1.155-.289a1.254,1.254,0,0,0-.19-.032v-.64h-.634v.634h-.24a1.268,1.268,0,1,0,0,2.536h.24v1.254a.208.208,0,0,1-.037,0l-1.154-.289-.154.615,1.155.289a1.258,1.258,0,0,0,.19.032v.64h.634V317.1h.24a1.268,1.268,0,1,0,0-2.536Zm-.874,0h-.24a.634.634,0,0,1-.449-1.082h0a.631.631,0,0,1,.449-.186h.239Zm.875,1.9h-.241V315.2h.241a.634.634,0,1,1,0,1.268Z" transform="translate(-193.983 -312.025)"/>
      </g>
    </g>
    <g id="Group_2112" data-name="Group 2112" transform="translate(105.584 0)">
      <g id="Group_2111" data-name="Group 2111" transform="translate(0 0)">
        <path id="Path_947" data-name="Path 947" class="cls-1" d="M151.331.071a.317.317,0,0,0-.087.012h0l-1.136.325A2.877,2.877,0,0,1,148.2.291l-.032-.013a3.494,3.494,0,0,0-2.61-.05l-1.314.5a.317.317,0,0,0-.2.3v3.17a.317.317,0,0,0,.428.3l1.337-.5a2.856,2.856,0,0,1,2.14.049,3.517,3.517,0,0,0,2.346.149l1.129-.322a.317.317,0,0,0,.228-.3V.388A.317.317,0,0,0,151.331.071Zm-5.017,2.557a1.569,1.569,0,0,0,.276.551,3.5,3.5,0,0,0-1.006.216h0l-.909.341V1.241l1.11-.42A2.857,2.857,0,0,1,147.414.7,1.568,1.568,0,0,0,146.314,2.628Zm1.53.543a.951.951,0,1,1,.951-.951A.951.951,0,0,1,147.843,3.171Zm3.17.149-.9.256a2.872,2.872,0,0,1-1.5.02,1.57,1.57,0,0,0,.377-2.462,3.512,3.512,0,0,0,1.289-.116l.732-.209Z" transform="translate(-144.039 0)"/>
      </g>
    </g>
    <g id="Group_2114" data-name="Group 2114" transform="translate(105.898 4.756)">
      <g id="Group_2113" data-name="Group 2113" transform="translate(0)">
        <path id="Path_948" data-name="Path 948" class="cls-1" d="M154.429,121.063l-.951-.951a.317.317,0,0,0-.448,0h0l-.951.951a.317.317,0,0,0,.44.456l.008-.008.408-.41v2.722a.317.317,0,0,0,.634,0V121.1l.412.41a.317.317,0,0,0,.448-.448Z" transform="translate(-151.981 -120.019)"/>
      </g>
    </g>
    <g id="Group_2116" data-name="Group 2116" transform="translate(110.04 4.756)">
      <g id="Group_2115" data-name="Group 2115" transform="translate(0)">
        <path id="Path_949" data-name="Path 949" class="cls-1" d="M258.906,122.654a.317.317,0,0,0-.449,0l-.412.41v-2.722a.317.317,0,0,0-.634,0v2.722l-.41-.41a.317.317,0,0,0-.446.448l.951.951a.317.317,0,0,0,.448,0h0l.951-.951A.317.317,0,0,0,258.906,122.654Z" transform="translate(-256.477 -120.025)"/>
      </g>
    </g>
  </g>
</svg>
