<svg xmlns="http://www.w3.org/2000/svg" width="14.252" height="14.271" viewBox="0 0 14.252 14.271">
    <path id="prefix__share-alt" fill="#bbb" d="M13.4 10.539a2.849 2.849 0 0 0-2.2 1.054L7.569 9.919a2.593 2.593 0 0 0 0-1.61L11.2 6.635a2.849 2.849 0 1 0-.655-1.8 2.971 2.971 0 0 0 .05.506l-3.76 1.736a2.849 2.849 0 1 0 0 4.075l3.765 1.731a2.971 2.971 0 0 0-.05.506 2.849 2.849 0 1 0 2.85-2.85zm0-7.124a1.425 1.425 0 1 1-1.429 1.425A1.425 1.425 0 0 1 13.4 3.415zm-8.552 7.124a1.425 1.425 0 1 1 1.424-1.425 1.425 1.425 0 0 1-1.424 1.425zm8.552 4.274a1.425 1.425 0 1 1 1.425-1.425 1.425 1.425 0 0 1-1.425 1.425z" transform="translate(-1.994 -1.967)"/>
</svg>
