<svg xmlns="http://www.w3.org/2000/svg" width="22.593" height="22.593" viewBox="0 0 22.593 22.593">
    <path id="prefix__icons8_surface" fill="currentColor" d="M4.347.5L1 3.847l3.347 3.347v-2.51h8.368v2.51l3.347-3.347L12.715.5v2.51H4.347zM3.51 8.031A2.519 2.519 0 0 0 1 10.541v10.041a2.519 2.519 0 0 0 2.51 2.51h10.042a2.519 2.519 0 0 0 2.51-2.51V10.541a2.519 2.519 0 0 0-2.51-2.51zm16.736 0L16.9 11.378h2.51v8.368H16.9l3.347 3.347 3.347-3.347h-2.51v-8.368h2.51zM3.51 9.7h10.042a.826.826 0 0 1 .837.837v10.045a.826.826 0 0 1-.837.837H3.51a.826.826 0 0 1-.837-.837V10.541A.826.826 0 0 1 3.51 9.7z" transform="translate(-1 -.5)"/>
</svg>
