<svg xmlns="http://www.w3.org/2000/svg" width="15.469" height="17.6" viewBox="0 0 15.469 17.6">
  <defs>
    <style>
      .cls-1 {
        stroke-width: 0.5px;
      }
    </style>
  </defs>
  <path id="icons8_online_support_1" class="cls-1" d="M18.786,8c-3.881,0-7.11,3.834-7.11,3.834l-.206.24.271.163a2.9,2.9,0,0,1,1.206,2.554v2.175a1.065,1.065,0,0,0-.534.92,3.543,3.543,0,0,0,.171.821,3.343,3.343,0,0,1,.1.381.936.936,0,0,0,.935.935h.165a5.309,5.309,0,0,0,4.3,4.708,1.585,1.585,0,0,0,2.032,0A5.307,5.307,0,0,0,23.365,22.7h.271a1.874,1.874,0,0,0,1.87-1.87v-.84a1.068,1.068,0,0,0,.8-1.031V17.619a1.068,1.068,0,0,0-1.031-1.065,26.4,26.4,0,0,0,.23-3.014A3.735,3.735,0,0,0,24.435,10.6a3.083,3.083,0,0,0-1.977-.7A4.089,4.089,0,0,0,18.786,8Zm0,.534a3.478,3.478,0,0,1,3.273,1.719l.073.151H22.3A2.662,2.662,0,0,1,24.082,11a3.176,3.176,0,0,1,.89,2.542,26.231,26.231,0,0,1-.234,3.01h-.3v-.8a3.935,3.935,0,0,0-2.311-3.724l-.159-.058-.121.117a6.132,6.132,0,0,1-4.089,1.261,4.868,4.868,0,0,0-2.506.744,3.13,3.13,0,0,0-1.5,2.729V16.9a.541.541,0,0,0-.267-.086V14.791a3.647,3.647,0,0,0-1.209-2.806C12.758,11.457,15.57,8.534,18.786,8.534Zm3.292,4.055A3.4,3.4,0,0,1,23.9,15.748v3.741h0l-.014.253a4.82,4.82,0,0,1-.492,1.884h.59a5.352,5.352,0,0,0,.416-1.6h.566v.8a1.332,1.332,0,0,1-1.336,1.336H20.112a.8.8,0,0,0-.751-.534h-.534a.8.8,0,1,0,0,1.6h.534a.8.8,0,0,0,.751-.534h2.562a4.777,4.777,0,0,1-2.732,1.524l-.076.014-.057.052a1.078,1.078,0,0,1-1.432,0l-.057-.052-.076-.014A4.779,4.779,0,0,1,14.3,19.742l-.014-.253h-.666a.4.4,0,0,1-.4-.4,2.3,2.3,0,0,0-.117-.528,3.489,3.489,0,0,1-.15-.675.535.535,0,0,1,.5-.533,3.971,3.971,0,0,1,.425.242l.408.252V16.817c0-2.4,2.572-2.939,3.473-2.939A6.86,6.86,0,0,0,22.078,12.589Zm2.359,4.5h.8a.535.535,0,0,1,.534.534v1.336a.535.535,0,0,1-.534.534h-.8Zm-7.748.267a.534.534,0,1,0,.534.534A.534.534,0,0,0,16.689,17.351Zm4.809,0a.534.534,0,1,0,.534.534A.534.534,0,0,0,21.5,17.351Zm-2.672,4.809h.534a.267.267,0,1,1,0,.534h-.534a.267.267,0,1,1,0-.534Z" transform="translate(-11.088 -7.75)"/>
</svg>
