<svg xmlns="http://www.w3.org/2000/svg" width="32.067" height="36.73" viewBox="0 0 32.067 36.73">
    <path id="prefix__icons8_online_support_1" fill="currentColor" stroke="currentColor" stroke-width="0.5px" d="M26.97 8c-8.222 0-15.064 8.123-15.064 8.123l-.436.509.575.345a6.135 6.135 0 0 1 2.555 5.411V27a2.257 2.257 0 0 0-1.132 1.949 7.506 7.506 0 0 0 .363 1.739 7.084 7.084 0 0 1 .2.808 1.984 1.984 0 0 0 1.981 1.981h.349a11.249 11.249 0 0 0 9.1 9.975 3.359 3.359 0 0 0 4.305 0 11.244 11.244 0 0 0 6.9-4.314h.574a3.971 3.971 0 0 0 3.963-3.963v-1.781a2.262 2.262 0 0 0 1.7-2.184v-2.83a2.263 2.263 0 0 0-2.185-2.257 55.927 55.927 0 0 0 .486-6.385c0-3.052-.921-5.047-2.269-6.235a6.532 6.532 0 0 0-4.185-1.493A8.663 8.663 0 0 0 26.97 8zm0 1.132c5.259 0 6.935 3.643 6.935 3.643l.155.32h.355a5.64 5.64 0 0 1 3.776 1.257c1.074.947 1.885 2.556 1.885 5.386a55.577 55.577 0 0 1-.5 6.377h-.636v-1.7a8.338 8.338 0 0 0-4.9-7.89l-.336-.124-.257.248c-.028.027-2.841 2.671-8.664 2.671a10.313 10.313 0 0 0-5.302 1.58 6.632 6.632 0 0 0-3.181 5.781v.182a1.146 1.146 0 0 0-.566-.182v-4.293a7.728 7.728 0 0 0-2.561-5.946c1.027-1.117 6.984-7.31 13.797-7.31zm6.974 8.591a7.212 7.212 0 0 1 3.867 6.694v7.925l-.029.536a10.212 10.212 0 0 1-1.042 3.993h1.249a11.34 11.34 0 0 0 .882-3.4h1.2v1.7A2.822 2.822 0 0 1 37.245 38h-7.466a1.7 1.7 0 0 0-1.592-1.132h-1.132a1.7 1.7 0 1 0 0 3.4h1.132a1.7 1.7 0 0 0 1.592-1.132h5.429a10.121 10.121 0 0 1-5.788 3.229l-.16.029-.122.109a2.284 2.284 0 0 1-3.034 0l-.121-.109-.16-.029a10.126 10.126 0 0 1-8.367-9.485l-.029-.536h-1.411a.85.85 0 0 1-.849-.849 4.862 4.862 0 0 0-.248-1.118 7.393 7.393 0 0 1-.318-1.43 1.134 1.134 0 0 1 1.066-1.13 8.415 8.415 0 0 1 .9.512l.864.534v-2.18c0-5.083 5.45-6.227 7.359-6.227 5.274-.002 8.245-2.001 9.154-2.733zm5 9.524h1.7a1.133 1.133 0 0 1 1.132 1.132v2.83a1.133 1.133 0 0 1-1.132 1.132h-1.7zm-16.417.566a1.132 1.132 0 1 0 1.132 1.132 1.132 1.132 0 0 0-1.133-1.132zm10.19 0a1.132 1.132 0 1 0 1.132 1.132 1.132 1.132 0 0 0-1.133-1.132zM27.055 38h1.132a.566.566 0 0 1 0 1.132h-1.132a.566.566 0 1 1 0-1.132z" transform="translate(-11.088 -7.75)"/>
</svg>
