<svg xmlns="http://www.w3.org/2000/svg" width="22.778" height="25" viewBox="0 0 22.778 25">
    <g id="prefix__wc" transform="translate(-22.755)">
        <g id="prefix__Group_2013" data-name="Group 2013" transform="translate(22.755)">
            <path id="prefix__Path_936" fill="#bbb" d="M43.033 12.222h-.278V1.944A1.947 1.947 0 0 0 40.811 0H27.477a1.947 1.947 0 0 0-1.945 1.944v10.278h-.278a2.5 2.5 0 0 0-1.374 4.587 5.841 5.841 0 0 0 5.82 5.413.834.834 0 0 1 .833.833V25h7.222v-1.944a.834.834 0 0 1 .833-.833 5.841 5.841 0 0 0 5.818-5.413 2.5 2.5 0 0 0-1.374-4.587zM27.2 1.944a.278.278 0 0 1 .278-.278h13.333a.278.278 0 0 1 .278.278v10.278H27.2zm11.389 18.612a2.5 2.5 0 0 0-2.5 2.5v.278H32.2v-.278a2.5 2.5 0 0 0-2.5-2.5 4.174 4.174 0 0 1-4.083-3.333h17.054a4.174 4.174 0 0 1-4.082 3.333zm4.444-5H25.255a.833.833 0 0 1 0-1.667h17.778a.833.833 0 1 1 0 1.667z" data-name="Path 936" transform="translate(-22.755)"/>
        </g>
    </g>
</svg>
